<svg width="24" height="24" viewBox="0 0 24 24" fill="none" xmlns="http://www.w3.org/2000/svg">
<path d="M15.9922 20V4C15.9922 3.46957 15.7815 2.96086 15.4064 2.58579C15.0313 2.21071 14.5226 2 13.9922 2H9.99219C9.46175 2 8.95305 2.21071 8.57797 2.58579C8.2029 2.96086 7.99219 3.46957 7.99219 4V20" stroke="white" stroke-width="2" stroke-linecap="round" stroke-linejoin="round"/>
<path d="M19.9922 6H3.99219C2.88762 6 1.99219 6.89543 1.99219 8V18C1.99219 19.1046 2.88762 20 3.99219 20H19.9922C21.0968 20 21.9922 19.1046 21.9922 18V8C21.9922 6.89543 21.0968 6 19.9922 6Z" stroke="white" stroke-width="2" stroke-linecap="round" stroke-linejoin="round"/>
</svg>
