<svg width="25" height="24" viewBox="0 0 25 24" fill="none" xmlns="http://www.w3.org/2000/svg">
<path d="M15.3203 21V13C15.3203 12.7348 15.215 12.4804 15.0274 12.2929C14.8399 12.1054 14.5855 12 14.3203 12H10.3203C10.0551 12 9.80074 12.1054 9.61321 12.2929C9.42567 12.4804 9.32031 12.7348 9.32031 13V21" stroke="white" stroke-width="2" stroke-linecap="round" stroke-linejoin="round"/>
<path d="M3.32031 9.99997C3.32024 9.70904 3.38365 9.42159 3.5061 9.15768C3.62855 8.89378 3.80711 8.65976 4.02931 8.47197L11.0293 2.47297C11.3903 2.16788 11.8477 2.00049 12.3203 2.00049C12.793 2.00049 13.2503 2.16788 13.6113 2.47297L20.6113 8.47197C20.8335 8.65976 21.0121 8.89378 21.1345 9.15768C21.257 9.42159 21.3204 9.70904 21.3203 9.99997V19C21.3203 19.5304 21.1096 20.0391 20.7345 20.4142C20.3595 20.7893 19.8507 21 19.3203 21H5.32031C4.78988 21 4.28117 20.7893 3.9061 20.4142C3.53103 20.0391 3.32031 19.5304 3.32031 19V9.99997Z" stroke="white" stroke-width="2" stroke-linecap="round" stroke-linejoin="round"/>
</svg>
