<svg width="89" height="65" viewBox="0 0 89 65" fill="none" xmlns="http://www.w3.org/2000/svg">
<path d="M61.6879 19.0888C61.6879 20.4249 61.6879 21.7611 61.6879 23.0935C61.6879 23.6486 61.2982 24.0429 60.7386 24.0429C58.9055 24.0429 57.0763 24.0429 55.2432 24.0429C54.6836 24.0429 54.2938 23.6486 54.2938 23.0935C54.2938 20.4173 54.2938 17.7373 54.2938 15.0611C54.2938 14.6629 54.124 14.3643 53.7574 14.1844C53.6146 14.1155 53.4641 14.0963 53.3098 14.0963C52.2639 14.0963 51.222 14.0963 50.1761 14.0963C49.7169 14.0963 49.3619 13.813 49.2577 13.3727C49.1959 13.1162 49.2615 12.8827 49.4005 12.6644C50.126 11.5235 50.8553 10.3826 51.5809 9.24169C53.4487 6.30901 55.3204 3.38398 57.1843 0.447465C57.5587 -0.145963 58.4154 -0.15362 58.7974 0.451294C60.2948 2.81735 61.8037 5.17575 63.3088 7.53415C64.397 9.24169 65.4853 10.9454 66.5697 12.6529C66.8669 13.1239 66.7665 13.6407 66.315 13.9547C66.1529 14.0657 65.9716 14.1001 65.7747 14.1001C64.7366 14.1001 63.6985 14.1001 62.6604 14.1001C62.3247 14.1001 62.0468 14.2188 61.85 14.4983C61.7342 14.6629 61.6841 14.8467 61.6841 15.0458C61.6879 16.3935 61.6879 17.7411 61.6879 19.0888Z" fill="#2C6DB6"/>
<path d="M15.6093 3.76877C15.5804 4.87544 15.5052 5.85596 15.4126 6.83649C15.3664 7.36402 15.3027 7.88582 15.2623 8.41335C15.2391 8.70006 15.2276 8.98676 15.3317 9.26199C15.3837 9.40534 15.4531 9.54296 15.5746 9.64618C15.7307 9.77806 15.8985 9.80099 16.0893 9.73792C16.3265 9.65764 16.5 9.49709 16.6446 9.30213C17.0032 8.81474 17.275 8.28147 17.5469 7.74247C17.8534 7.13466 18.1021 6.49818 18.374 5.8789C18.5995 5.36857 18.8482 4.86397 19.1779 4.41098C19.4671 4.01533 19.8083 3.67129 20.2537 3.44766C21.0577 3.04627 21.8732 3.45339 22.0872 4.31924C22.2376 4.92131 22.1392 5.50045 21.9194 6.06812C21.6997 6.63006 21.4047 7.16333 21.1271 7.6966C20.6528 8.61405 20.1843 9.53723 19.7679 10.4833C19.6001 10.8733 19.4555 11.2689 19.3803 11.6875C19.3514 11.8309 19.3572 11.9799 19.3746 12.1233C19.4208 12.4616 19.6637 12.6451 20.0281 12.6279C20.2074 12.6164 20.3809 12.5705 20.5487 12.5075C21.0634 12.301 21.5377 12.0201 22.0062 11.7391C22.5672 11.4065 23.1225 11.0625 23.7356 10.8274C24.0826 10.6955 24.4354 10.598 24.8171 10.6611C25.4534 10.7586 25.8177 11.2402 25.7541 11.8767C25.6905 12.5132 25.3782 13.0235 24.9444 13.4708C24.5453 13.8779 24.071 14.1875 23.591 14.4857C23.0126 14.847 22.4169 15.1853 21.8616 15.5867C21.0866 16.1486 20.4677 16.8309 20.0744 17.7083C19.8431 18.2301 19.7158 18.7805 19.6001 19.3367C19.4787 19.9331 19.3746 20.5294 19.1548 21.1028C18.8309 21.9572 18.2988 22.651 17.5122 23.1441C16.9222 23.5169 16.3091 23.815 15.6093 23.9297C15.268 23.9871 14.9268 24.0215 14.5855 24.0329C13.8105 24.0501 13.0297 24.0501 12.2547 23.9928C11.5433 23.9412 10.8492 23.8093 10.1956 23.5226C9.65194 23.2818 9.19502 22.9263 8.8075 22.4733C8.35636 21.94 8.0556 21.3265 7.78954 20.69C7.56976 20.1682 7.36733 19.6349 7.14176 19.1131C6.57494 17.8115 5.6611 16.8482 4.36552 16.2403C3.67724 15.9192 2.96005 15.6555 2.24863 15.386C1.74544 15.2025 1.24803 15.0075 0.785325 14.738C0.658081 14.6635 0.530837 14.5889 0.420944 14.4915C0.0276434 14.1703 -0.0996009 13.7632 0.0796979 13.2873C0.316835 12.6566 0.785325 12.2609 1.42155 12.0602C1.87847 11.9111 2.34696 11.9111 2.82123 11.9513C3.52686 12.0086 4.20935 12.1921 4.89763 12.3297C5.26201 12.4043 5.62639 12.4731 6.00234 12.4845C6.32624 12.496 6.64435 12.4788 6.93932 12.324C7.32684 12.1176 7.5177 11.7792 7.59868 11.3664C7.697 10.8446 7.6276 10.3285 7.52927 9.81246C7.35576 8.91222 7.03765 8.05784 6.74267 7.19773C6.55181 6.64726 6.37829 6.08533 6.27997 5.50619C6.19321 4.96718 6.15272 4.42245 6.34937 3.89492C6.5171 3.44192 6.80051 3.09215 7.29792 2.97747C7.63917 2.89719 7.96306 2.966 8.2696 3.10362C8.72074 3.31004 9.05042 3.65408 9.31648 4.0612C9.64037 4.5486 9.83702 5.0876 10.0048 5.63807C10.3344 6.73901 10.6294 7.85142 10.9302 8.95809C10.9764 9.12438 11.0401 9.28493 11.1384 9.42828C11.364 9.77806 11.7804 9.77232 12.0002 9.42255C12.1506 9.18172 12.2026 8.90648 12.2257 8.63125C12.2547 8.27 12.2084 7.91449 12.191 7.55324C12.1621 7.00851 12.1274 6.45804 12.1043 5.9133C12.0638 5.11054 12.0117 4.3135 12.0407 3.51073C12.0638 2.78824 12.1332 2.07148 12.3819 1.3834C12.5265 0.987748 12.7289 0.626502 13.0528 0.339799C13.5618 -0.107458 14.2154 -0.113192 14.7359 0.322597C15.1524 0.66664 15.3664 1.12537 15.4705 1.64143C15.5861 2.24924 15.6324 3.02907 15.6093 3.76877ZM17.5064 15.9364C17.5122 14.847 16.9801 14.0557 16.0836 13.7116C15.4878 13.4823 14.8979 13.5052 14.3253 13.7976C13.9667 13.9811 13.6948 14.2564 13.4693 14.5889C13.3362 14.7896 13.29 14.7839 13.1569 14.5832C12.7232 13.9295 12.1159 13.5683 11.3177 13.5625C10.1436 13.5511 9.17188 14.4915 9.12561 15.6555C9.09669 16.3665 9.29912 17.0144 9.66351 17.6222C9.99319 18.1785 10.4328 18.6486 10.8897 19.0959C11.5548 19.7439 12.2894 20.3173 13.0008 20.9251C13.209 21.1028 13.4288 21.0971 13.6312 20.9308C14.2385 20.4147 14.8516 19.9044 15.4473 19.3769C15.939 18.9411 16.4017 18.4766 16.7776 17.9376C17.2172 17.2954 17.4948 16.5901 17.5064 15.9364Z" fill="#CD2027"/>
<path d="M45.0742 23.9883C44.6703 23.9883 44.2945 23.8665 43.9328 23.7072C43.1154 23.3418 42.3498 22.8921 41.5982 22.4096C40.8842 21.9506 40.1749 21.4775 39.4468 21.0418C39.0241 20.7889 38.6013 20.5312 38.141 20.3532C37.8262 20.2315 37.5021 20.1518 37.1639 20.1706C36.9572 20.1799 36.7552 20.2268 36.5673 20.3158C35.7453 20.7092 35.0078 21.2386 34.2797 21.7819C33.547 22.3253 32.8189 22.8781 32.0109 23.3137C31.4613 23.6135 30.8883 23.8384 30.2635 23.918C29.8549 23.9695 29.4509 23.9555 29.0704 23.7681C28.5067 23.4917 28.3188 23.0514 28.502 22.4518C28.6007 22.1333 28.7698 21.8475 28.9248 21.5571C29.5542 20.3626 30.3105 19.2431 31.0292 18.1048C31.4472 17.4443 31.8794 16.7979 32.2082 16.0905C32.4525 15.5612 32.631 15.0085 32.6967 14.4276C32.7766 13.7297 32.6451 13.0692 32.3444 12.4415C32.0673 11.8653 31.6868 11.3547 31.2781 10.8676C30.8319 10.3335 30.3481 9.82764 29.9112 9.28894C29.3522 8.60035 28.8966 7.8415 28.4926 7.05454C28.1967 6.48305 27.9055 5.90689 27.7035 5.29324C27.6048 4.99813 27.5391 4.69365 27.5391 4.37981C27.5438 3.59753 28.1121 3.17594 28.7181 3.09163C29.2348 3.01668 29.6904 3.19468 30.1226 3.44763C30.5688 3.70995 30.9634 4.04254 31.3392 4.39386C31.7526 4.78266 32.1425 5.19019 32.5464 5.58835C33.2275 6.25821 33.9462 6.87653 34.7777 7.35433C35.4212 7.71971 36.1023 7.98671 36.8445 8.0804C37.4551 8.15535 38.0564 8.09445 38.6483 7.92581C39.4092 7.71034 40.1044 7.35433 40.7809 6.96085C41.4526 6.56737 42.0961 6.13641 42.7772 5.76636C43.5053 5.36819 44.271 5.05434 45.093 4.91382C45.544 4.83887 45.9996 4.81076 46.4506 4.92318C47.1223 5.08713 47.5122 5.67735 47.4088 6.35658C47.3384 6.80627 47.1176 7.1857 46.8498 7.5417C46.3284 8.23029 45.6567 8.75493 44.938 9.22336C44.3837 9.58405 43.7872 9.87916 43.2188 10.2164C42.6927 10.5303 42.1666 10.8582 41.7391 11.3032C41.3727 11.6873 41.1144 12.137 41.0251 12.6663C40.9406 13.1722 41.0157 13.6594 41.1801 14.1372C41.4291 14.8351 41.8237 15.4535 42.2652 16.0437C42.7115 16.6386 43.2141 17.1913 43.6791 17.7722C44.3039 18.5592 44.9051 19.3555 45.342 20.2642C45.652 20.906 45.901 21.5758 46.0325 22.2738C46.1076 22.6673 46.1311 23.0701 45.9761 23.4589C45.8446 23.7962 45.5815 23.9601 45.2292 23.9929C45.1729 23.9929 45.1212 23.9883 45.0742 23.9883Z" fill="#F6D70E"/>
<path d="M34.0822 3.37737C34.0728 1.57861 35.5384 0 37.4737 0C39.3526 0 40.8793 1.5224 40.8699 3.4008C40.8558 5.25578 39.3667 6.7688 37.4737 6.7688C35.5243 6.76412 34.0634 5.17614 34.0822 3.37737Z" fill="#F6D70E"/>
<path d="M80.1119 20.9145C80.1119 21.4261 80.1216 21.9328 80.1119 22.4443C80.1023 22.9656 79.9235 23.4139 79.5129 23.75C79.0347 24.1398 78.3052 24.1398 77.827 23.7549C77.397 23.409 77.2231 22.9461 77.2183 22.4151C77.2134 21.5381 77.2134 20.6563 77.2134 19.7794C77.2134 19.5991 77.2183 19.414 77.199 19.2337C77.1796 19.0583 77.1072 19.0193 76.9622 19.1265C76.8366 19.2191 76.7207 19.3214 76.5999 19.4188C75.9816 19.9304 75.2763 20.2471 74.4792 20.3299C73.658 20.4176 72.9044 20.2422 72.2716 19.6673C72.0783 19.4919 71.9141 19.2873 71.7692 19.0729C71.5663 18.7757 71.3972 18.4493 71.1653 18.1716C70.9141 17.8695 70.6146 17.6162 70.2716 17.4262C69.7161 17.1144 69.2523 16.71 68.948 16.14C68.5374 15.3751 68.4987 14.5712 68.7547 13.7625C69.1895 12.3691 70.1074 11.4191 71.4503 10.8783C72.0445 10.6395 72.6677 10.5129 73.3053 10.4349C73.6145 10.4008 73.9189 10.3618 74.2184 10.2839C74.2715 10.2693 74.3198 10.2498 74.3681 10.2303C74.3923 10.2206 74.4164 10.2059 74.4164 10.1767C74.4213 10.1426 74.3923 10.128 74.3681 10.1134C74.2715 10.0695 74.1701 10.05 74.0686 10.0305C73.5662 9.94772 73.0541 9.89413 72.5517 9.80156C71.6194 9.63104 70.7643 9.28513 70.0542 8.63229C69.3344 7.9697 68.8417 7.16583 68.663 6.19143C68.4987 5.31448 68.663 4.50573 69.2185 3.79929C69.4794 3.47287 69.8127 3.22927 70.1653 3.01491C70.5759 2.76644 70.9527 2.47899 71.2474 2.08923C71.3489 1.95769 71.4358 1.82127 71.518 1.67512C71.9237 0.924831 72.4938 0.359683 73.3247 0.120956C74.0155 -0.0787947 74.7063 -0.025203 75.3681 0.237883C76.8028 0.79816 77.711 1.85051 78.1458 3.33159C78.2955 3.85289 78.368 4.3888 78.4501 4.92472C78.4888 5.16832 78.5033 5.41679 78.5661 5.66039C78.5757 5.70424 78.5902 5.74808 78.6095 5.78706C78.624 5.81629 78.6337 5.86014 78.6772 5.85527C78.7158 5.8504 78.7303 5.81629 78.74 5.78219C78.8028 5.57269 78.8366 5.3632 78.8704 5.14883C78.9429 4.66651 78.9815 4.18418 79.0975 3.70673C79.281 2.92721 79.595 2.21103 80.1071 1.59229C80.7641 0.79816 81.5901 0.267115 82.5998 0.0722364C83.5901 -0.11777 84.4838 0.0965963 85.2132 0.832264C85.4161 1.03689 85.5707 1.27561 85.7301 1.51434C85.8992 1.77255 86.0635 2.03077 86.2663 2.2695C86.5417 2.59105 86.8847 2.8249 87.2325 3.04414C87.5465 3.24389 87.8557 3.45826 88.102 3.7457C88.4837 4.1988 88.6866 4.72497 88.7252 5.31448C88.8315 6.86864 87.9088 8.51049 86.532 9.2218C85.991 9.50437 85.4113 9.66028 84.8171 9.77233C84.2954 9.86977 83.7737 9.95259 83.2519 10.0452C83.1843 10.0549 83.1167 10.0793 83.0539 10.1036C83.0152 10.1182 82.9669 10.128 82.9621 10.1767C82.9621 10.2303 83.0152 10.24 83.0587 10.2547C83.1891 10.3034 83.3292 10.3229 83.4645 10.3521C83.9524 10.4447 84.4451 10.4788 84.933 10.5811C86.1891 10.8442 87.247 11.4337 87.9958 12.5055C88.5127 13.246 88.7832 14.0743 88.7349 14.9902C88.6914 15.8233 88.3532 16.5054 87.6963 17.017C87.5272 17.1485 87.3533 17.2654 87.1697 17.3726C86.6238 17.7039 86.1746 18.1278 85.8461 18.6832C85.6528 19.0096 85.4499 19.3263 85.1746 19.5942C84.706 20.0571 84.1408 20.3055 83.4886 20.3445C82.4259 20.4127 81.5032 20.0571 80.7013 19.3701C80.5902 19.2727 80.4791 19.1704 80.3535 19.0924C80.2279 19.0145 80.1602 19.0437 80.1457 19.1947C80.1216 19.3799 80.1312 19.565 80.1312 19.7501C80.1168 20.135 80.1168 20.5248 80.1119 20.9145C80.1168 20.9145 80.1168 20.9145 80.1119 20.9145ZM76.7255 13.4702C76.9091 13.4702 77.0927 13.4702 77.2762 13.4702C77.5081 13.4702 77.7448 13.4702 77.9767 13.4702C78.0395 13.4702 78.0637 13.4896 78.0492 13.553C78.0443 13.5725 78.0443 13.592 78.0443 13.6114C77.9332 14.4299 77.8221 15.2436 77.7159 16.062C77.682 16.3105 77.8656 16.5395 78.112 16.5639C78.31 16.5833 78.4501 16.481 78.5661 16.3251C79.3583 15.2777 80.1071 14.2058 80.8607 13.1291C81.2278 12.6078 81.6046 12.0914 81.9814 11.575C82.0877 11.4288 82.0925 11.2729 82.0104 11.117C81.9283 10.966 81.822 10.849 81.624 10.849C80.8317 10.8539 80.0395 10.8539 79.2472 10.8539C79.1264 10.8539 79.1216 10.8539 79.1409 10.7272C79.1844 10.4057 79.2279 10.0841 79.2714 9.76259C79.339 9.26565 79.4066 8.77358 79.4743 8.27664C79.5032 8.07689 79.3825 7.86252 79.1892 7.77482C78.996 7.692 78.8076 7.74072 78.6772 7.91611C78.5274 8.11586 78.3777 8.32048 78.2279 8.52024C77.199 9.89413 76.2618 11.3362 75.2232 12.7053C75.17 12.7783 75.1362 12.8612 75.1217 12.9489C75.0734 13.2266 75.2763 13.4702 75.5565 13.4702C75.943 13.4702 76.3342 13.4702 76.7255 13.4702Z" fill="#55B948"/>
<path d="M82.4221 64.1064C81.7439 64.1064 81.1542 63.8557 80.653 63.3545C80.1812 62.8532 79.9453 62.2635 79.9453 61.5853V34.3405C79.9453 33.6624 80.1812 33.0727 80.653 32.5714C81.1542 32.0701 81.7439 31.8195 82.4221 31.8195H85.695C86.3732 31.8195 86.9482 32.0701 87.4199 32.5714C87.9212 33.0727 88.1718 33.6624 88.1718 34.3405V61.5853C88.1718 62.2635 87.9212 62.8532 87.4199 63.3545C86.9482 63.8557 86.3732 64.1064 85.695 64.1064H82.4221Z" fill="black"/>
<path d="M65.2686 51.3585C61.5534 50.1791 58.8702 48.7196 57.219 46.9799C55.5678 45.2108 54.7422 43.0583 54.7422 40.5225C54.7422 37.7509 55.7005 35.5689 57.617 33.9767C59.5631 32.355 62.3348 31.5441 65.932 31.5441C68.6447 31.5441 71.1068 31.8537 73.3182 32.4729C74.0258 32.6793 74.5861 33.1069 74.9989 33.7556C75.4412 34.3748 75.6623 35.0677 75.6623 35.8343V37.1169C75.6623 37.7066 75.4117 38.1637 74.9104 38.488C74.4092 38.8124 73.8784 38.8713 73.3182 38.6649C70.8119 37.7804 68.4973 37.3381 66.3743 37.3381C63.6616 37.3381 62.3053 38.3996 62.3053 40.5225C62.3053 42.3212 63.4847 43.6038 65.8436 44.3704C69.9126 45.6088 72.7285 47.0536 74.2912 48.7048C75.8834 50.356 76.6796 52.5232 76.6796 55.2064C76.6796 61.5458 72.6842 64.7155 64.6936 64.7155C62.1578 64.7155 59.858 64.3175 57.794 63.5214C57.0863 63.256 56.5261 62.799 56.1133 62.1503C55.73 61.4721 55.5383 60.735 55.5383 59.9389V58.5236C55.5383 57.9928 55.7742 57.5948 56.246 57.3294C56.7177 57.0345 57.1895 57.005 57.6613 57.2409C59.8137 58.3024 62.0104 58.8332 64.2513 58.8332C65.8141 58.8332 66.9935 58.5383 67.7896 57.9486C68.6152 57.3294 69.028 56.4596 69.028 55.3391C69.028 54.3661 68.7479 53.57 68.1877 52.9508C67.6274 52.3316 66.6544 51.8008 65.2686 51.3585Z" fill="black"/>
<path d="M33.3518 64.1648C32.6736 64.1648 32.0839 63.9141 31.5827 63.4129C31.1109 62.9116 30.875 62.3219 30.875 61.6437V34.399C30.875 33.7208 31.1109 33.1311 31.5827 32.6298C32.0839 32.1286 32.6736 31.8779 33.3518 31.8779H49.0087C49.6869 31.8779 50.2619 32.1286 50.7336 32.6298C51.2349 33.1311 51.4855 33.7208 51.4855 34.399V35.4162C51.4855 36.0944 51.2349 36.6841 50.7336 37.1854C50.2619 37.6866 49.6869 37.9372 49.0087 37.9372H38.7477C38.5118 37.9372 38.3939 38.0552 38.3939 38.2911V44.1292C38.3939 44.3946 38.5118 44.5273 38.7477 44.5273H48.1241C48.8023 44.5273 49.3773 44.7779 49.8491 45.2792C50.3503 45.7804 50.6009 46.3702 50.6009 47.0483V47.7118C50.6009 48.3899 50.3503 48.9796 49.8491 49.4809C49.3773 49.9821 48.8023 50.2328 48.1241 50.2328H38.7477C38.5118 50.2328 38.3939 50.3507 38.3939 50.5866V57.7516C38.3939 57.9875 38.5118 58.1055 38.7477 58.1055H49.0087C49.6869 58.1055 50.2619 58.3561 50.7336 58.8574C51.2349 59.3586 51.4855 59.9483 51.4855 60.6265V61.6437C51.4855 62.3219 51.2349 62.9116 50.7336 63.4129C50.2619 63.9141 49.6869 64.1648 49.0087 64.1648H33.3518Z" fill="black"/>
<path d="M13.648 38.3653L10.4193 51.0589C10.3898 51.1474 10.4046 51.2359 10.4635 51.3243C10.552 51.3833 10.6405 51.4128 10.7289 51.4128H16.6555C16.744 51.4128 16.8177 51.3833 16.8767 51.3243C16.9651 51.2359 16.9946 51.1474 16.9651 51.0589L13.7365 38.3653C13.7365 38.3359 13.7217 38.3211 13.6922 38.3211C13.6627 38.3211 13.648 38.3359 13.648 38.3653ZM1.83898 64.1064C1.21978 64.1064 0.71852 63.8557 0.335206 63.3545C-0.0186226 62.8532 -0.0923368 62.3077 0.114063 61.718L9.04823 34.2079C9.28412 33.5002 9.69692 32.9252 10.2866 32.4829C10.9058 32.0407 11.584 31.8195 12.3211 31.8195H15.2402C16.0069 31.8195 16.6998 32.0407 17.319 32.4829C17.9382 32.9252 18.351 33.5002 18.5574 34.2079L27.4473 61.718C27.6537 62.3077 27.5653 62.8532 27.1819 63.3545C26.8281 63.8557 26.3416 64.1064 25.7224 64.1064H22.7591C22.0219 64.1064 21.3585 63.8852 20.7688 63.4429C20.1791 62.9712 19.7958 62.3814 19.6189 61.6738L18.5574 57.4721C18.5279 57.2362 18.3805 57.1183 18.1151 57.1183H9.26938C9.03349 57.1183 8.88606 57.2362 8.82709 57.4721L7.7656 61.6738C7.58869 62.3814 7.20538 62.9712 6.61566 63.4429C6.02595 63.8852 5.36252 64.1064 4.62538 64.1064H1.83898Z" fill="black"/>
</svg>
